<svg width="446" height="446" viewBox="0 0 446 446" fill="none" xmlns="http://www.w3.org/2000/svg">
<path d="M215.568 241.582V239.724L209.993 234.149H208.134L178.401 222.999C185.834 217.424 193.268 213.707 202.559 213.707C211.851 213.707 221.143 217.424 228.576 224.857C236.009 232.291 239.726 239.724 239.726 249.016C239.726 258.307 237.868 265.741 230.434 273.174L215.568 241.582ZM180.259 358.657C174.684 340.074 178.401 317.774 193.268 288.041L215.568 345.649C219.284 356.799 215.568 364.232 204.418 369.807C193.268 375.382 185.834 371.666 180.259 358.657ZM76.1925 243.441C79.9092 232.291 87.3425 228.574 98.4925 232.291L157.959 254.591C128.226 269.457 105.926 273.174 87.3425 267.599C76.1925 262.024 72.4759 254.591 76.1925 243.441ZM223.001 150.524H204.418V176.541H196.984C176.543 176.541 159.818 183.974 144.951 198.841L137.518 209.991L111.501 195.124C105.926 193.266 100.351 193.266 92.9175 193.266C81.7675 193.266 70.6175 196.982 61.3259 204.416C52.0342 211.849 44.6009 219.282 40.8842 230.432C37.1675 243.441 37.1675 254.591 40.8842 267.599C46.4592 280.607 52.0342 289.899 61.3259 295.474C53.8925 323.349 59.4675 347.507 79.9092 367.949C94.7759 382.816 111.501 390.249 131.943 390.249C141.234 390.249 146.809 390.249 152.384 388.391C163.534 403.257 178.401 412.549 196.984 412.549C202.559 412.549 209.993 412.549 215.568 410.691C226.718 406.974 234.151 399.541 241.584 390.249C249.018 379.099 252.734 369.807 252.734 358.657C252.734 351.224 252.734 345.649 250.876 340.074L239.726 314.057L250.876 306.624C265.743 291.757 273.176 271.316 271.318 249.016H297.334V230.432H267.601C260.167 208.132 245.301 193.266 223.001 185.832V150.524ZM321.492 126.366C317.776 122.649 315.917 117.074 315.917 113.357C315.917 107.782 317.776 104.066 321.492 100.349C325.209 96.6323 328.926 94.774 334.501 94.774C340.076 94.774 343.793 96.6323 347.509 100.349C351.226 102.207 353.084 107.782 353.084 113.357C353.084 118.932 351.226 122.649 347.509 126.366C343.793 130.082 340.076 130.082 334.501 130.082C328.926 130.082 325.209 130.082 321.492 126.366ZM384.676 76.1907H364.234L358.659 59.4657C354.942 46.4573 347.509 40.8823 334.501 40.8823C321.493 40.8823 312.201 46.4573 310.343 59.4657L304.768 76.1907H284.326C273.176 76.1907 265.743 81.7657 260.168 92.9157C256.451 104.066 260.168 113.357 271.318 120.791L288.043 130.082L280.609 152.382C276.893 159.816 278.751 167.249 282.467 174.682C288.042 182.116 293.617 185.832 302.909 185.832C310.342 185.832 315.918 183.974 319.634 180.257L334.501 169.107L349.368 182.116C353.084 183.974 358.659 185.832 366.093 185.832C375.384 185.832 380.959 182.116 386.534 174.682C390.251 167.249 392.109 159.816 388.393 152.382L380.959 130.082L395.826 120.791C406.976 113.357 410.693 104.066 406.976 92.9157C403.259 79.9073 395.826 76.1907 384.676 76.1907Z" fill="#FFC400"/>
</svg>
